<svg width="230" height="72" viewBox="0 0 230 72" fill="none" xmlns="http://www.w3.org/2000/svg">
<path d="M5.544 63V12.744H39.744V22.464H16.488V32.76H36.432V42.408H16.488V53.28H39.744V63H5.544ZM67.2304 22.464V63H56.2864V22.464H42.6784V12.744H80.8384V22.464H67.2304ZM83.1 63V54.288H89.58V21.456H83.1V12.744H107.004V21.456H100.524V54.288H107.004V63H83.1Z" fill="#0D3558"/>
<path d="M126.864 32.616C129.552 32.616 131.496 32.112 132.696 31.104C133.944 30.048 134.568 28.752 134.568 27.216V26.712C134.568 24.888 133.968 23.424 132.768 22.32C131.616 21.216 129.96 20.664 127.8 20.664C125.784 20.664 123.888 21.192 122.112 22.248C120.336 23.256 118.824 24.72 117.576 26.64L110.808 20.304C111.768 19.056 112.8 17.928 113.904 16.92C115.008 15.864 116.256 14.976 117.648 14.256C119.04 13.488 120.6 12.912 122.328 12.528C124.056 12.096 126 11.88 128.16 11.88C130.848 11.88 133.272 12.192 135.432 12.816C137.64 13.44 139.512 14.352 141.048 15.552C142.632 16.704 143.832 18.096 144.648 19.728C145.512 21.36 145.944 23.184 145.944 25.2C145.944 26.784 145.68 28.224 145.152 29.52C144.672 30.816 143.976 31.944 143.064 32.904C142.2 33.864 141.192 34.656 140.04 35.28C138.888 35.856 137.664 36.264 136.368 36.504V36.936C137.856 37.224 139.224 37.704 140.472 38.376C141.768 39 142.872 39.816 143.784 40.824C144.744 41.832 145.488 43.032 146.016 44.424C146.544 45.768 146.808 47.304 146.808 49.032C146.808 51.288 146.352 53.328 145.44 55.152C144.528 56.976 143.232 58.536 141.552 59.832C139.872 61.128 137.856 62.136 135.504 62.856C133.152 63.528 130.56 63.864 127.728 63.864C125.184 63.864 122.928 63.6 120.96 63.072C118.992 62.544 117.264 61.848 115.776 60.984C114.336 60.072 113.064 59.04 111.96 57.888C110.904 56.736 109.968 55.512 109.152 54.216L117.144 48.024C118.248 50.088 119.592 51.792 121.176 53.136C122.808 54.432 124.992 55.08 127.728 55.08C130.176 55.08 132.072 54.48 133.416 53.28C134.808 52.032 135.504 50.352 135.504 48.24V47.808C135.504 45.744 134.712 44.208 133.128 43.2C131.592 42.144 129.456 41.616 126.72 41.616H122.184V32.616H126.864ZM169.06 63.864C166.084 63.864 163.42 63.408 161.068 62.496C158.716 61.536 156.724 60.192 155.092 58.464C153.508 56.688 152.284 54.576 151.42 52.128C150.604 49.68 150.196 46.944 150.196 43.92C150.196 40.416 150.724 37.104 151.78 33.984C152.884 30.816 154.276 27.912 155.956 25.272C157.684 22.584 159.604 20.184 161.716 18.072C163.876 15.96 166.036 14.184 168.196 12.744H183.1C180.028 14.952 177.268 17.064 174.82 19.08C172.372 21.048 170.236 23.04 168.412 25.056C166.636 27.072 165.148 29.136 163.948 31.248C162.796 33.312 161.98 35.544 161.5 37.944L162.148 38.16C162.58 37.2 163.084 36.264 163.66 35.352C164.284 34.44 165.028 33.648 165.892 32.976C166.804 32.256 167.86 31.68 169.06 31.248C170.26 30.816 171.652 30.6 173.236 30.6C175.3 30.6 177.22 30.984 178.996 31.752C180.82 32.472 182.38 33.504 183.676 34.848C185.02 36.192 186.052 37.848 186.772 39.816C187.54 41.736 187.924 43.872 187.924 46.224C187.924 48.816 187.468 51.192 186.556 53.352C185.692 55.512 184.42 57.384 182.74 58.968C181.108 60.504 179.14 61.704 176.836 62.568C174.532 63.432 171.94 63.864 169.06 63.864ZM169.06 55.44C171.46 55.44 173.332 54.792 174.676 53.496C176.02 52.152 176.692 50.256 176.692 47.808V46.512C176.692 44.064 176.02 42.192 174.676 40.896C173.332 39.552 171.46 38.88 169.06 38.88C166.66 38.88 164.788 39.552 163.444 40.896C162.1 42.192 161.428 44.064 161.428 46.512V47.808C161.428 50.256 162.1 52.152 163.444 53.496C164.788 54.792 166.66 55.44 169.06 55.44ZM207.944 63.864C201.368 63.864 196.496 61.584 193.328 57.024C190.16 52.464 188.576 46.08 188.576 37.872C188.576 29.664 190.16 23.28 193.328 18.72C196.496 14.16 201.368 11.88 207.944 11.88C214.52 11.88 219.392 14.16 222.56 18.72C225.728 23.28 227.312 29.664 227.312 37.872C227.312 46.08 225.728 52.464 222.56 57.024C219.392 61.584 214.52 63.864 207.944 63.864ZM207.944 54.72C210.824 54.72 212.816 53.664 213.92 51.552C215.024 49.44 215.576 46.464 215.576 42.624V33.12C215.576 29.28 215.024 26.304 213.92 24.192C212.816 22.08 210.824 21.024 207.944 21.024C205.064 21.024 203.072 22.08 201.968 24.192C200.864 26.304 200.312 29.28 200.312 33.12V42.624C200.312 46.464 200.864 49.44 201.968 51.552C203.072 53.664 205.064 54.72 207.944 54.72Z" fill="#C9A24D"/>
</svg>
